<svg xmlns="http://www.w3.org/2000/svg" width="200.196" height="112" viewBox="0 0 200.196 112">
  <g id="Grupo_682" data-name="Grupo 682" transform="translate(-3768.663 -2533.168)">
    <g id="Grupo_621" data-name="Grupo 621" transform="translate(3768.663 2601.11)">
      <path id="Caminho_2317" data-name="Caminho 2317" d="M3791.059,3055.9q2.671,2.606,2.672,7.863v13.468h-8.255V3065.11q0-4.822-3.867-4.822a4.415,4.415,0,0,0-3.41,1.389,5.968,5.968,0,0,0-1.282,4.171v11.382h-8.254V3045h8.254v10.861a9.017,9.017,0,0,1,3.171-1.912,11.549,11.549,0,0,1,3.91-.651A9.679,9.679,0,0,1,3791.059,3055.9Z" transform="translate(-3768.663 -3044.996)" fill="#0098c5"/>
      <path id="Caminho_2318" data-name="Caminho 2318" d="M4013.36,3121.758h-17.118a4.8,4.8,0,0,0,2.021,2.8,6.74,6.74,0,0,0,3.758.977,8.126,8.126,0,0,0,2.932-.477,8.646,8.646,0,0,0,2.5-1.564l4.345,4.518q-3.433,3.824-10.036,3.823a16.018,16.018,0,0,1-7.255-1.564,11.888,11.888,0,0,1-.261-21.2,14.826,14.826,0,0,1,13.033-.109,11.071,11.071,0,0,1,4.54,4.214,12.361,12.361,0,0,1,1.674,6.538Q4013.49,3119.8,4013.36,3121.758Zm-15.62-7.3a4.9,4.9,0,0,0-1.628,2.954h9.644a4.909,4.909,0,0,0-1.628-2.954,5.239,5.239,0,0,0-6.387,0Z" transform="translate(-3958.836 -3099.21)" fill="#0098c5"/>
      <rect id="Retângulo_152" data-name="Retângulo 152" width="8.255" height="23.547" transform="translate(58.477 8.689)" fill="#0098c5"/>
      <path id="Caminho_2319" data-name="Caminho 2319" d="M4334.022,3110.114q2.67,2.608,2.672,7.864v13.469h-8.255v-12.122q0-4.823-3.866-4.823a4.42,4.42,0,0,0-3.412,1.39,5.966,5.966,0,0,0-1.281,4.171v11.383h-8.255V3107.9h7.863v2.563a9.368,9.368,0,0,1,3.3-2.194,11.2,11.2,0,0,1,4.171-.76A9.678,9.678,0,0,1,4334.022,3110.114Z" transform="translate(-4239.55 -3099.21)" fill="#0098c5"/>
      <path id="Caminho_2320" data-name="Caminho 2320" d="M4529.949,3131.165a15.4,15.4,0,0,1-4.606-1.76l2.477-5.648a13.968,13.968,0,0,0,3.823,1.586,17.086,17.086,0,0,0,4.388.586,7.01,7.01,0,0,0,2.845-.413,1.294,1.294,0,0,0,.848-1.194q0-.783-1.021-1.108a21.145,21.145,0,0,0-3.236-.63,31.883,31.883,0,0,1-4.8-.912,7.394,7.394,0,0,1-3.41-2.085,5.959,5.959,0,0,1-1.435-4.258,6.432,6.432,0,0,1,1.347-4.018,8.934,8.934,0,0,1,3.932-2.782,16.87,16.87,0,0,1,6.19-1.02,25.082,25.082,0,0,1,5.084.521,14.655,14.655,0,0,1,4.214,1.477l-2.477,5.6a13.741,13.741,0,0,0-6.778-1.738,6.743,6.743,0,0,0-2.867.456,1.359,1.359,0,0,0-.913,1.195q0,.827,1,1.151a22.927,22.927,0,0,0,3.3.674,36.493,36.493,0,0,1,4.823,1,7.375,7.375,0,0,1,3.324,2.063,5.874,5.874,0,0,1,1.412,4.193,6.373,6.373,0,0,1-1.346,3.975,8.784,8.784,0,0,1-3.976,2.76,17.85,17.85,0,0,1-6.321,1A25.426,25.426,0,0,1,4529.949,3131.165Z" transform="translate(-4424.898 -3099.21)" fill="#0098c5"/>
      <path id="Caminho_2321" data-name="Caminho 2321" d="M4718.512,3098.7a8.3,8.3,0,0,1-2.542,1,14.1,14.1,0,0,1-3.192.347q-4.605,0-7.082-2.259t-2.476-6.734v-7.907h-3.432v-6.17h3.432v-6.126h8.254v6.126h5.388v6.17h-5.388v7.819a2.774,2.774,0,0,0,.674,1.978,2.358,2.358,0,0,0,1.8.716,4.366,4.366,0,0,0,2.52-.739Z" transform="translate(-4576.185 -3067.419)" fill="#0098c5"/>
      <path id="Caminho_2322" data-name="Caminho 2322" d="M4873.791,3121.758h-17.117a4.789,4.789,0,0,0,2.02,2.8,6.742,6.742,0,0,0,3.758.977,8.131,8.131,0,0,0,2.933-.477,8.655,8.655,0,0,0,2.5-1.564l4.345,4.518q-3.433,3.824-10.035,3.823a16.015,16.015,0,0,1-7.255-1.564,11.888,11.888,0,0,1-.261-21.2,14.827,14.827,0,0,1,13.034-.109,11.087,11.087,0,0,1,4.54,4.214,12.374,12.374,0,0,1,1.672,6.538Q4873.921,3119.8,4873.791,3121.758Zm-15.619-7.3a4.9,4.9,0,0,0-1.628,2.954h9.646a4.91,4.91,0,0,0-1.63-2.954,5.239,5.239,0,0,0-6.387,0Z" transform="translate(-4705.05 -3099.21)" fill="#0098c5"/>
      <path id="Caminho_2323" data-name="Caminho 2323" d="M5092.016,3110.114q2.671,2.608,2.672,7.864v13.469h-8.254v-12.122q0-4.823-3.868-4.823a4.421,4.421,0,0,0-3.411,1.39,5.976,5.976,0,0,0-1.281,4.171v11.383h-8.253V3107.9h7.862v2.563a9.357,9.357,0,0,1,3.3-2.194,11.2,11.2,0,0,1,4.171-.76A9.677,9.677,0,0,1,5092.016,3110.114Z" transform="translate(-4896.926 -3099.21)" fill="#0098c5"/>
    </g>
    <g id="Grupo_622" data-name="Grupo 622" transform="translate(3818.325 2634.7)">
      <path id="Caminho_2324" data-name="Caminho 2324" d="M4144.13,3321.9a3.673,3.673,0,0,1-1.351-.742l.433-.912a3.594,3.594,0,0,0,1.2.684,4.406,4.406,0,0,0,1.5.263,2.711,2.711,0,0,0,1.521-.345,1.064,1.064,0,0,0,.5-.918.907.907,0,0,0-.274-.684,1.832,1.832,0,0,0-.678-.4c-.27-.094-.649-.2-1.141-.316a11.905,11.905,0,0,1-1.491-.444,2.462,2.462,0,0,1-.969-.684,1.829,1.829,0,0,1-.405-1.246,2.1,2.1,0,0,1,.346-1.181,2.373,2.373,0,0,1,1.046-.843,4.258,4.258,0,0,1,1.743-.315,5.5,5.5,0,0,1,1.427.188,3.8,3.8,0,0,1,1.2.538l-.385.935a4.2,4.2,0,0,0-1.1-.5,4.1,4.1,0,0,0-1.146-.17,2.526,2.526,0,0,0-1.492.363,1.111,1.111,0,0,0-.5.936.893.893,0,0,0,.281.684,1.941,1.941,0,0,0,.695.409,10.866,10.866,0,0,0,1.128.31,11.326,11.326,0,0,1,1.485.445,2.5,2.5,0,0,1,.965.679,1.783,1.783,0,0,1,.4,1.228,2.092,2.092,0,0,1-.35,1.176,2.343,2.343,0,0,1-1.064.842,4.4,4.4,0,0,1-1.754.31A5.6,5.6,0,0,1,4144.13,3321.9Z" transform="translate(-4142.779 -3311.719)" fill="#fff"/>
      <path id="Caminho_2325" data-name="Caminho 2325" d="M4209.068,3321.686v1.018h-5.941v-8.187h5.777v1.018H4204.3v2.514h4.1v.994h-4.1v2.643Z" transform="translate(-4195.117 -3312.329)" fill="#fff"/>
      <path id="Caminho_2326" data-name="Caminho 2326" d="M4262.541,3321.861a3.7,3.7,0,0,1-.912-2.69v-4.655h1.169v4.608q0,2.632,2.3,2.632a2.219,2.219,0,0,0,1.72-.649,2.848,2.848,0,0,0,.6-1.982v-4.608h1.134v4.655a3.692,3.692,0,0,1-.913,2.7,3.952,3.952,0,0,1-5.1-.006Z" transform="translate(-4245.853 -3312.329)" fill="#fff"/>
      <path id="Caminho_2327" data-name="Caminho 2327" d="M4361.237,3315.277a2.858,2.858,0,0,1,0,4.187,3.788,3.788,0,0,1-2.5.76h-2.023v2.48h-1.169v-8.187h3.193A3.79,3.79,0,0,1,4361.237,3315.277Zm-.842,3.456a1.879,1.879,0,0,0,0-2.725,2.641,2.641,0,0,0-1.7-.474h-1.988v3.672h1.988A2.641,2.641,0,0,0,4360.4,3318.733Z" transform="translate(-4327.299 -3312.329)" fill="#fff"/>
      <path id="Caminho_2328" data-name="Caminho 2328" d="M4424.212,3321.686v1.018h-5.941v-8.187h5.778v1.018h-4.608v2.514h4.105v.994h-4.105v2.643Z" transform="translate(-4381.701 -3312.329)" fill="#fff"/>
      <path id="Caminho_2329" data-name="Caminho 2329" d="M4471.207,3315.534H4468.4v-1.018h6.771v1.018h-2.807v7.169h-1.158Z" transform="translate(-4425.177 -3312.329)" fill="#fff"/>
      <path id="Caminho_2330" data-name="Caminho 2330" d="M4558.655,3321.686v1.018h-5.941v-8.187h5.776v1.018h-4.608v2.514h4.105v.994h-4.105v2.643Z" transform="translate(-4498.297 -3312.329)" fill="#fff"/>
      <path id="Caminho_2331" data-name="Caminho 2331" d="M4619.332,3322.7l-.011-5.965-2.959,4.97h-.538l-2.958-4.935v5.93h-1.123v-8.187h.959l3.415,5.754,3.368-5.754h.959l.011,8.187Z" transform="translate(-4549.489 -3312.329)" fill="#fff"/>
      <path id="Caminho_2332" data-name="Caminho 2332" d="M4726.208,3319.177a2.067,2.067,0,0,1,.409,1.316,1.894,1.894,0,0,1-.8,1.638,3.991,3.991,0,0,1-2.333.573h-3.906v-8.187h3.672a3.622,3.622,0,0,1,2.169.562,1.821,1.821,0,0,1,.767,1.555,2.022,2.022,0,0,1-.3,1.111,1.947,1.947,0,0,1-.8.714A2.1,2.1,0,0,1,4726.208,3319.177Zm-5.461-3.713v2.619h2.4a2.429,2.429,0,0,0,1.386-.333,1.223,1.223,0,0,0,0-1.953,2.429,2.429,0,0,0-1.386-.333Zm4.186,5.964a1.14,1.14,0,0,0,.5-1.029q0-1.369-2-1.369h-2.689v2.725h2.689A2.768,2.768,0,0,0,4724.934,3321.428Z" transform="translate(-4643.011 -3312.329)" fill="#fff"/>
      <path id="Caminho_2333" data-name="Caminho 2333" d="M4783.377,3321.643a4.02,4.02,0,0,1-1.562-1.5,4.324,4.324,0,0,1,0-4.281,4.02,4.02,0,0,1,1.563-1.5,4.833,4.833,0,0,1,4.455,0,3.993,3.993,0,0,1,1.555,1.5,4.384,4.384,0,0,1,0,4.292,3.989,3.989,0,0,1-1.555,1.5,4.835,4.835,0,0,1-4.455,0Zm3.853-.906a3.011,3.011,0,0,0,1.134-1.129,3.324,3.324,0,0,0,0-3.217,3,3,0,0,0-1.134-1.128,3.206,3.206,0,0,0-1.62-.409,3.267,3.267,0,0,0-1.63.409,2.977,2.977,0,0,0-1.147,1.128,3.32,3.32,0,0,0,0,3.217,2.983,2.983,0,0,0,1.147,1.129,3.277,3.277,0,0,0,1.63.409A3.216,3.216,0,0,0,4787.229,3320.737Z" transform="translate(-4696.494 -3311.719)" fill="#fff"/>
      <path id="Caminho_2334" data-name="Caminho 2334" d="M4856.511,3320.657h-4.35l-.9,2.047h-1.2l3.707-8.187h1.158l3.719,8.187h-1.228Zm-.409-.936-1.767-4.011-1.765,4.011Z" transform="translate(-4756.168 -3312.329)" fill="#fff"/>
      <path id="Caminho_2335" data-name="Caminho 2335" d="M4919.6,3321.9a3.669,3.669,0,0,1-1.351-.742l.434-.912a3.57,3.57,0,0,0,1.2.684,4.393,4.393,0,0,0,1.5.263,2.7,2.7,0,0,0,1.52-.345,1.063,1.063,0,0,0,.5-.918.9.9,0,0,0-.274-.684,1.836,1.836,0,0,0-.677-.4q-.405-.14-1.141-.316a11.791,11.791,0,0,1-1.492-.444,2.462,2.462,0,0,1-.97-.684,1.828,1.828,0,0,1-.4-1.246,2.111,2.111,0,0,1,.344-1.181,2.373,2.373,0,0,1,1.047-.843,4.254,4.254,0,0,1,1.743-.315,5.488,5.488,0,0,1,1.426.188,3.774,3.774,0,0,1,1.2.538l-.386.935a4.2,4.2,0,0,0-1.1-.5,4.109,4.109,0,0,0-1.146-.17,2.525,2.525,0,0,0-1.491.363,1.109,1.109,0,0,0-.5.936.9.9,0,0,0,.28.684,1.948,1.948,0,0,0,.7.409,10.777,10.777,0,0,0,1.129.31,11.282,11.282,0,0,1,1.484.445,2.506,2.506,0,0,1,.966.679,1.783,1.783,0,0,1,.4,1.228,2.094,2.094,0,0,1-.352,1.176,2.344,2.344,0,0,1-1.064.842,4.4,4.4,0,0,1-1.754.31A5.6,5.6,0,0,1,4919.6,3321.9Z" transform="translate(-4815.307 -3311.719)" fill="#fff"/>
      <path id="Caminho_2336" data-name="Caminho 2336" d="M5009.884,3322.7l-.012-5.965-2.959,4.97h-.538l-2.959-4.935v5.93h-1.122v-8.187h.958l3.416,5.754,3.367-5.754h.959l.012,8.187Z" transform="translate(-4888.198 -3312.329)" fill="#fff"/>
      <path id="Caminho_2337" data-name="Caminho 2337" d="M5083.547,3306.369H5079.2l-.9,2.046h-1.206l3.708-8.187h1.157l3.719,8.187h-1.228Zm-1.83-6.959a4.711,4.711,0,0,1-.51-.35,1.845,1.845,0,0,0-.3-.24.5.5,0,0,0-.258-.077.525.525,0,0,0-.42.194.835.835,0,0,0-.175.532h-.631a1.717,1.717,0,0,1,.333-1.041,1.056,1.056,0,0,1,1.31-.263,3.629,3.629,0,0,1,.5.356,3.841,3.841,0,0,0,.316.24.445.445,0,0,0,.246.075.534.534,0,0,0,.421-.187.806.806,0,0,0,.175-.515h.631a1.648,1.648,0,0,1-.333,1.012,1,1,0,0,1-.812.38A.963.963,0,0,1,5081.717,3299.41Zm1.42,6.023-1.767-4.011-1.765,4.011Z" transform="translate(-4953.066 -3298.042)" fill="#fff"/>
      <path id="Caminho_2338" data-name="Caminho 2338" d="M5147.146,3321.643a4.03,4.03,0,0,1-1.562-1.5,4.334,4.334,0,0,1,0-4.281,4.031,4.031,0,0,1,1.562-1.5,4.835,4.835,0,0,1,4.456,0,3.978,3.978,0,0,1,1.555,1.5,4.374,4.374,0,0,1,0,4.292,3.975,3.975,0,0,1-1.555,1.5,4.837,4.837,0,0,1-4.456,0Zm3.853-.906a3,3,0,0,0,1.135-1.129,3.324,3.324,0,0,0,0-3.217,2.989,2.989,0,0,0-1.135-1.128,3.2,3.2,0,0,0-1.618-.409,3.28,3.28,0,0,0-1.633.409,3,3,0,0,0-1.146,1.128,3.324,3.324,0,0,0,0,3.217,3,3,0,0,0,1.146,1.129,3.29,3.29,0,0,0,1.633.409A3.206,3.206,0,0,0,5151,3320.737Z" transform="translate(-5011.978 -3311.719)" fill="#fff"/>
      <path id="Caminho_2339" data-name="Caminho 2339" d="M5219.759,3321.9a3.658,3.658,0,0,1-1.352-.742l.434-.912a3.577,3.577,0,0,0,1.2.684,4.4,4.4,0,0,0,1.5.263,2.7,2.7,0,0,0,1.52-.345,1.061,1.061,0,0,0,.5-.918.9.9,0,0,0-.275-.684,1.824,1.824,0,0,0-.677-.4q-.4-.14-1.14-.316a11.873,11.873,0,0,1-1.493-.444,2.467,2.467,0,0,1-.97-.684,1.83,1.83,0,0,1-.4-1.246,2.111,2.111,0,0,1,.344-1.181,2.375,2.375,0,0,1,1.048-.843,4.252,4.252,0,0,1,1.742-.315,5.512,5.512,0,0,1,1.428.188,3.805,3.805,0,0,1,1.2.538l-.387.935a4.2,4.2,0,0,0-1.1-.5,4.1,4.1,0,0,0-1.146-.17,2.524,2.524,0,0,0-1.491.363,1.109,1.109,0,0,0-.5.936.9.9,0,0,0,.28.684,1.963,1.963,0,0,0,.7.409,10.86,10.86,0,0,0,1.129.31,11.293,11.293,0,0,1,1.485.445,2.5,2.5,0,0,1,.965.679,1.784,1.784,0,0,1,.4,1.228,2.082,2.082,0,0,1-.352,1.176,2.346,2.346,0,0,1-1.063.842,4.4,4.4,0,0,1-1.754.31A5.591,5.591,0,0,1,5219.759,3321.9Z" transform="translate(-5075.624 -3311.719)" fill="#fff"/>
    </g>
    <g id="Grupo_624" data-name="Grupo 624" transform="translate(3858.431 2571.063)">
      <g id="Grupo_623" data-name="Grupo 623" transform="translate(0 0)">
        <path id="Caminho_2340" data-name="Caminho 2340" d="M4461.553,2845.4a9.978,9.978,0,0,1-.094,1.008q-.1.757-.242,1.66c-.1.6-.2,1.134-.294,1.6v.253a2.88,2.88,0,0,1-.462,1.554,4.143,4.143,0,0,1-1.42,1.344,3.467,3.467,0,0,1-1.753.5,1.953,1.953,0,0,1-1.511-.673,3.408,3.408,0,0,1-.652-2.226,23.275,23.275,0,0,1,.189-2.458q.105-.9.188-1.786a4.855,4.855,0,0,1-2.521.357c-.922-.1-1.49-.442-1.7-1.03a2.156,2.156,0,0,1-.031-1.575,2.081,2.081,0,0,1,1-1.071,26.067,26.067,0,0,1,4.2-1.219q.105-.8.419-3.529t.662-6.05q.349-3.319.525-5.462t.179-3.509a9.823,9.823,0,0,0-2.08.179,8.824,8.824,0,0,0-3.173,1.155,10.233,10.233,0,0,0-2.7,2.29,5.332,5.332,0,0,0-1.312,2.584,5.673,5.673,0,0,0,.084,2.2,3.2,3.2,0,0,0,.756,1.429,2.13,2.13,0,0,0,1.514.64,1.953,1.953,0,0,0,1.49-.431,1.6,1.6,0,0,0,.61-.945c.013-.266.021-.413.021-.441a1.717,1.717,0,0,0-.672-1.3,2.2,2.2,0,0,0-1.209-.294c-.554-.014-.885-.217-1-.609a1.309,1.309,0,0,1,.042-.987,2.664,2.664,0,0,1,1.021-1.009,2.942,2.942,0,0,1,1.617-.336,3.173,3.173,0,0,1,1.921.882,4.6,4.6,0,0,1,1.461,2.384,10.932,10.932,0,0,1,.221,1.859,7.494,7.494,0,0,1-.314,2.122,7.159,7.159,0,0,1-1.713,2.982,4.75,4.75,0,0,1-3.173,1.419,5.608,5.608,0,0,1-5.913-3.33,9.975,9.975,0,0,1-.83-4.223,10.88,10.88,0,0,1,.967-4.349,12.392,12.392,0,0,1,2.637-3.76,15.688,15.688,0,0,1,5.272-3.246,19.771,19.771,0,0,1,6.8-1.3,15.239,15.239,0,0,1,6.333,1.082,8.884,8.884,0,0,1,3.468,2.836,16.62,16.62,0,0,1,2.331,4.5,33.411,33.411,0,0,1,1.4,5.5,59.435,59.435,0,0,1,.567,8.5,72.48,72.48,0,0,1-.156,7.594,6.186,6.186,0,0,1-.841,2.458,4.516,4.516,0,0,1-1.45,1.533,2.966,2.966,0,0,1-1.534.484,2.768,2.768,0,0,1-.335-.021,2.41,2.41,0,0,1-1.575-1.1,6.436,6.436,0,0,1-.9-2.91c-.056-.56-.109-1.247-.157-2.058s-.087-1.541-.116-2.185-.048-1.009-.062-1.093Zm.924-4.895a30.9,30.9,0,0,0,3.657-1.114q.754-.272,1.239-.4a44.589,44.589,0,0,0-.349-4.822,39.6,39.6,0,0,0-.8-4.422,18.7,18.7,0,0,0-1.052-3.236q-.555-1.218-1.081-1.239l-.209,2.164q-.212,2.038-.5,4.821t-.535,5.147Q4462.6,2839.771,4462.477,2840.507Z" transform="translate(-4444.903 -2818.644)" fill="#f59e00"/>
        <path id="Caminho_2341" data-name="Caminho 2341" d="M4695.742,2889.411a3.535,3.535,0,0,1,.777-2.437,2.682,2.682,0,0,1,2.017-.757c.251,0,.518.015.8.042q.926.147,1.65,1.544a15.056,15.056,0,0,1,1.219,3.613,32.9,32.9,0,0,1,.671,4.318q.177,2.1.115,5.566a23.83,23.83,0,0,1-.629,4.548,7.562,7.562,0,0,1-1.334,3.015,2.333,2.333,0,0,1-2.06.893,2.112,2.112,0,0,1-1.576-.577,2.45,2.45,0,0,1-.346-1.429v-1.05a12.055,12.055,0,0,1-2.658,2.857,8.166,8.166,0,0,1-2.846,1.565,8.89,8.89,0,0,1-2.174.326,5.37,5.37,0,0,1-2.269-.672,5.638,5.638,0,0,1-2.341-2.489,15.428,15.428,0,0,1-1.494-4.212,28.549,28.549,0,0,1-.557-5.336,44.514,44.514,0,0,1,.169-5.136,28.87,28.87,0,0,1,.746-4.255,10.825,10.825,0,0,1,1.029-2.783,5.722,5.722,0,0,1,1.472-1.839,2.576,2.576,0,0,1,1.554-.609h.273a2.51,2.51,0,0,1,1.933,1.093,3.517,3.517,0,0,1,.441,1.438c.013.414.022.648.022.7a32.511,32.511,0,0,1-.37,3.781,50.635,50.635,0,0,0-.325,7.037,29.808,29.808,0,0,0,.42,5.83,2.263,2.263,0,0,0,1.439,1.807,1.649,1.649,0,0,0,1.859-.62,7.313,7.313,0,0,0,1.176-2.563,35.491,35.491,0,0,0,.82-5.6Q4695.72,2893.087,4695.742,2889.411Z" transform="translate(-4651.131 -2875.426)" fill="#f59e00"/>
        <path id="Caminho_2342" data-name="Caminho 2342" d="M4850.018,2893.768a3.992,3.992,0,0,1,1.145-1.323,3.324,3.324,0,0,1,1.818-.4h.23a3.862,3.862,0,0,1,1.628.42,2.6,2.6,0,0,1,1.04.882,7.847,7.847,0,0,1,2.951-2.174,7.39,7.39,0,0,1,2.217-.41,9.735,9.735,0,0,1,2.479.357,5.758,5.758,0,0,1,2.793,1.786,10.118,10.118,0,0,1,1.9,3.225,13.462,13.462,0,0,1,.777,4.328,23.154,23.154,0,0,1-.221,4.3,20.126,20.126,0,0,1-1.354,4.716,11.782,11.782,0,0,1-2.5,3.771,6.321,6.321,0,0,1-4.045,1.754,9.5,9.5,0,0,1-4.768-.788q-.021.168.063,2.216t.105,5.042a27.643,27.643,0,0,1-.295,4.78,4.9,4.9,0,0,1-1.207,2.678,3.253,3.253,0,0,1-2.542.83,2.71,2.71,0,0,1-2.248-.914,4.112,4.112,0,0,1-.725-1.922q-.421-3.614-.568-6.869t-.147-4.6q0-5.841.232-11.534.189-5.252.567-8.214A4.977,4.977,0,0,1,4850.018,2893.768Zm7.227,15.441q1.049.882,2.468-.84a8.837,8.837,0,0,0,1.859-3.635,24,24,0,0,0,.525-4.559,8.5,8.5,0,0,0-.368-2.458,1.87,1.87,0,0,0-1.177-1.439,2.026,2.026,0,0,0-1.711.4,5.78,5.78,0,0,0-1.712,2.29,10.832,10.832,0,0,0-.956,4.064,2.223,2.223,0,0,1,.82.284,1.811,1.811,0,0,1,.5.462,2.053,2.053,0,0,1,.273.494,1.944,1.944,0,0,1,.1.4l.022.168a2.643,2.643,0,0,0-1.093.682,2.412,2.412,0,0,0-.609,1.586v.168A2.522,2.522,0,0,0,4857.245,2909.208Z" transform="translate(-4794.965 -2881.19)" fill="#f59e00"/>
        <path id="Caminho_2343" data-name="Caminho 2343" d="M5014.269,2882.49a13.89,13.89,0,0,1,2.668-3.824,12.813,12.813,0,0,1,3.561-2.584,8.2,8.2,0,0,1,2.921-.956l1.04-.031a6.361,6.361,0,0,1,3.55,1.071,6.888,6.888,0,0,1,2.542,2.857,8.287,8.287,0,0,1,.535,4.653A6.259,6.259,0,0,1,5028.9,2888a8.553,8.553,0,0,1-4.075,1.838,30.089,30.089,0,0,1-3.457.4,7.99,7.99,0,0,1-2.164-.189,12.336,12.336,0,0,0,.483,2.458,6.67,6.67,0,0,0,1.271,2.573,2.6,2.6,0,0,0,2.027.988,1.806,1.806,0,0,0,1.66-.7,3.07,3.07,0,0,0,.452-1.733,9.111,9.111,0,0,0-.126-1.6,1.036,1.036,0,0,1,.452-1.04,2.564,2.564,0,0,1,1.754-.409,3.474,3.474,0,0,1,3.077,2.783q.083.9.084,1.156a6.376,6.376,0,0,1-.63,2.689,7.637,7.637,0,0,1-3.088,3.015,8.558,8.558,0,0,1-4.075,1.439,9.216,9.216,0,0,1-5.073-1.376,8.952,8.952,0,0,1-3.1-3.53,12.759,12.759,0,0,1-1.323-4.086,26.336,26.336,0,0,1-.231-3.067,19.148,19.148,0,0,1,.189-2.688A15.928,15.928,0,0,1,5014.269,2882.49Zm5.483,3.319a9.36,9.36,0,0,0,2.574.315,3.194,3.194,0,0,0,3.35-3.015,2.414,2.414,0,0,0-.588-2.321,1.724,1.724,0,0,0-1.891-.357,4.634,4.634,0,0,0-2.037,1.87A9.756,9.756,0,0,0,5019.752,2885.809Z" transform="translate(-4937.431 -2867.602)" fill="#f59e00"/>
        <path id="Caminho_2344" data-name="Caminho 2344" d="M5163.634,2875.272q-3.393-1.051-4.339-3a13.8,13.8,0,0,1-1.1-5.283,41.671,41.671,0,0,1,1.04-9.381,63.7,63.7,0,0,0,.82-6.491l-1.093-.084a1.65,1.65,0,0,1-1.312-.641,1.947,1.947,0,0,1-.389-1.376,2.108,2.108,0,0,1,.42-1.208,1.47,1.47,0,0,1,1.051-.494c.643-.042,1.134-.07,1.47-.084a13.821,13.821,0,0,0-.273-2.059,7.86,7.86,0,0,1-.2-1.754,1.889,1.889,0,0,1,.44-1.26,2.756,2.756,0,0,1,1.786-.63q1.355-.136,1.648-.136a2.453,2.453,0,0,1,2.375,1.764,10.016,10.016,0,0,1,.567,3.593v.756l.882.168a9.926,9.926,0,0,1,2.6.609,1.568,1.568,0,0,1,1.157,1.449,2.54,2.54,0,0,1-.651,1.628q-.652.788-4.16.347-.084,1.7-.42,4.159a96.042,96.042,0,0,0-.882,10.63,10.108,10.108,0,0,0,.21,2.332,1.489,1.489,0,0,0,1.449,1.219,2.5,2.5,0,0,0,1.85-.9,2.164,2.164,0,0,0,.63-1.471,2.05,2.05,0,0,0-.988-1.533,8.268,8.268,0,0,1-.725-.683,1,1,0,0,1,.116-1.607,2.241,2.241,0,0,1,1.47-.588c.041,0,.224.01.546.031a2.77,2.77,0,0,1,1.26.568,4.424,4.424,0,0,1,1.262,1.313,6.623,6.623,0,0,1,.965,3.571,6.844,6.844,0,0,1-.588,2.815,8.624,8.624,0,0,1-2.353,3.151A8.386,8.386,0,0,1,5163.634,2875.272Z" transform="translate(-5062.689 -2838.367)" fill="#f59e00"/>
      </g>
    </g>
    <g id="Grupo_625" data-name="Grupo 625" transform="translate(3771.126 2533.168)">
      <path id="Caminho_2345" data-name="Caminho 2345" d="M3882.807,2559.875s-1.132-10.734-14.18-10.586-17.38,11.67-18.219,13.282-1.871.554-1.871.554a27.52,27.52,0,0,0-5.958-5.416c-6.992-4.776-15.937-2.691-18.579-1.854a1.923,1.923,0,0,1-2.773-1.74c-1.313-19.826-15.822-20.811-15.822-20.811-10.536-1.165-13.885,5.4-13.491,9.93a10.6,10.6,0,0,0,4.851,8.272c2.018,1.378,7.705,2.228,10.106,1.12s3.787.045,3.787.045c3.447,2.954,2.036,7.648,2.036,7.648s-3.513,8.8-6.762,12.145a7.618,7.618,0,0,1-6.8,2.527,38.609,38.609,0,0,0-7.451-.886c-3.775.558-3.2,4.891-3.2,4.891-1.3,2.117-1.265,8.862-1.265,8.862.919,10.964,7.353,13.2,7.353,13.2a5.978,5.978,0,0,0,4.662,5.45,61.141,61.141,0,0,0,15.132.164,56.537,56.537,0,0,1,16.889.673c1.067.312.886,0,.886,0-7.435-8.272-6.671-23.388-6.671-23.388l-2.732-9.208a1.262,1.262,0,0,1,.222-1.4,1.2,1.2,0,0,1,1.255-.247s8.666,4.456,10.635,5.392,2.626-.247,2.626-.247c5.318-4.957,17.081-4.394,17.081-4.394l6.943-7.5s4.444-5.736,4.566-1.995a11.681,11.681,0,0,0,1.281,5.548s2.921,4.07,7.647,3.611C3885.3,2572.07,3882.807,2559.875,3882.807,2559.875Zm-88.433,22.981c-2.024-.419-3.392-2.076-3.055-3.7s2.249-2.6,4.273-2.182,3.392,2.076,3.055,3.7S3796.4,2583.276,3794.374,2582.856Zm3.875,19.479V2600.2s11.292,1.805,14.542-4.957l1.937.821S3812.036,2604.107,3798.25,2602.335Z" transform="translate(-3787.22 -2533.167)" fill="#fff"/>
      <path id="Caminho_2346" data-name="Caminho 2346" d="M4142.642,2994.509s3.348-.124,4.555,0,1.255-1.256,1.255-1.256-.861-2.388-5.293-2.659a4.554,4.554,0,0,0-4.973,3.922s-.194,1.642,1.332,1.3S4140.623,2994.337,4142.642,2994.509Z" transform="translate(-4091.59 -2929.862)" fill="#fff"/>
      <path id="Caminho_2347" data-name="Caminho 2347" d="M4287.87,2960.908a9.756,9.756,0,0,1,6.729-2.231c2.429.229,1.6-1.518,1.6-1.518a5.367,5.367,0,0,0-4.519-1.97c-2.978.172-5.231,4.074-5.231,4.074s-.492.862.148,1.391A1.279,1.279,0,0,0,4287.87,2960.908Z" transform="translate(-4220.02 -2899.16)" fill="#fff"/>
      <ellipse id="Elipse_1" data-name="Elipse 1" cx="4.103" cy="2.95" rx="4.103" ry="2.95" transform="translate(58.359 69.774) rotate(-17.394)" fill="#fff"/>
      <path id="Caminho_2348" data-name="Caminho 2348" d="M4380.133,3030.848s6.855-.732,10.942.543,5.058,2.876,5.058,2.876.095.547-.272.695-.958-.34-.958-.34a11.449,11.449,0,0,0-4.834-1.779c-3.352-.6-9.583-1.274-9.583-1.274a.75.75,0,0,1-.646-.253C4379.63,3031.015,4380.133,3030.848,4380.133,3030.848Z" transform="translate(-4301.129 -2964.602)" fill="#fffffe"/>
      <path id="Caminho_2349" data-name="Caminho 2349" d="M4375.154,3051.17c.047.018,7.083.868,11.047,3.151,1.956,1.368,1.852,2.145,1.435,2.419s-.995-.39-.995-.39-.832-1.31-6.875-3.3c-4.768-1.488-4.847-1.518-4.847-1.518s-.533-.127-.452-.286S4375.154,3051.17,4375.154,3051.17Z" transform="translate(-4296.507 -2982.39)" fill="#fffffe"/>
    </g>
  </g>
</svg>
