<svg xmlns="http://www.w3.org/2000/svg" width="89.348" height="46.749" viewBox="0 0 89.348 46.749">
  <g id="Grupo_365" data-name="Grupo 365" transform="translate(-966.14 -1157.675)">
    <g id="pawprint" transform="translate(988.019 1170.875) rotate(70)" opacity="0">
      <path id="Caminho_596" data-name="Caminho 596" d="M79.72,185.1a6.845,6.845,0,0,0-11.527,0l-3.048,4.756a4.333,4.333,0,0,0,5.392,6.3l.057-.026a8.518,8.518,0,0,1,6.782.026,4.309,4.309,0,0,0,1.739.368,4.364,4.364,0,0,0,.97-.11,4.333,4.333,0,0,0,2.684-6.563Zm0,0" transform="translate(-60.92 -171.959)" fill="#772e8a"/>
      <path id="Caminho_597" data-name="Caminho 597" d="M5.045,106.6a3.323,3.323,0,0,0,1.94-2.058,4.293,4.293,0,0,0-.076-2.961,4.3,4.3,0,0,0-1.929-2.247,3.323,3.323,0,0,0-2.818-.227A3.805,3.805,0,0,0,.3,104.127a4.014,4.014,0,0,0,3.61,2.684,3.147,3.147,0,0,0,1.135-.21Zm0,0" transform="translate(0 -93.464)" fill="#772e8a"/>
      <path id="Caminho_598" data-name="Caminho 598" d="M128.543,9.411a4.451,4.451,0,0,0,4.13-4.7,4.165,4.165,0,1,0-8.259,0A4.45,4.45,0,0,0,128.543,9.411Zm0,0" transform="translate(-117.583)" fill="#772e8a"/>
      <path id="Caminho_599" data-name="Caminho 599" d="M286.682,48.609h0a3.366,3.366,0,0,0,1.063.172,4.28,4.28,0,0,0,3.9-3.066,4.614,4.614,0,0,0-.066-3.183,3.491,3.491,0,0,0-5.175-1.72,4.615,4.615,0,0,0-1.958,2.51,4.082,4.082,0,0,0,2.239,5.287Zm0,0" transform="translate(-268.59 -38.042)" fill="#772e8a"/>
      <path id="Caminho_600" data-name="Caminho 600" d="M382.838,171.679h0a4.047,4.047,0,0,0-4.777,6.454,3.228,3.228,0,0,0,1.939.626,4.175,4.175,0,0,0,3.3-1.746A3.807,3.807,0,0,0,382.838,171.679Zm0,0" transform="translate(-356.049 -161.661)" fill="#772e8a"/>
    </g>
    <g id="pawprint-2" data-name="pawprint" transform="matrix(-0.259, 0.966, -0.966, -0.259, 1028.645, 1161.13)" opacity="0">
      <path id="Caminho_596-2" data-name="Caminho 596" d="M79.72,185.1a6.845,6.845,0,0,0-11.527,0l-3.048,4.756a4.333,4.333,0,0,0,5.392,6.3l.057-.026a8.518,8.518,0,0,1,6.782.026,4.309,4.309,0,0,0,1.739.368,4.364,4.364,0,0,0,.97-.11,4.333,4.333,0,0,0,2.684-6.563Zm0,0" transform="translate(-60.92 -171.959)" fill="#772e8a"/>
      <path id="Caminho_597-2" data-name="Caminho 597" d="M5.045,106.6a3.323,3.323,0,0,0,1.94-2.058,4.293,4.293,0,0,0-.076-2.961,4.3,4.3,0,0,0-1.929-2.247,3.323,3.323,0,0,0-2.818-.227A3.805,3.805,0,0,0,.3,104.127a4.014,4.014,0,0,0,3.61,2.684,3.147,3.147,0,0,0,1.135-.21Zm0,0" transform="translate(0 -93.464)" fill="#772e8a"/>
      <path id="Caminho_598-2" data-name="Caminho 598" d="M128.543,9.411a4.451,4.451,0,0,0,4.13-4.7,4.165,4.165,0,1,0-8.259,0A4.45,4.45,0,0,0,128.543,9.411Zm0,0" transform="translate(-117.583)" fill="#772e8a"/>
      <path id="Caminho_599-2" data-name="Caminho 599" d="M286.682,48.609h0a3.366,3.366,0,0,0,1.063.172,4.28,4.28,0,0,0,3.9-3.066,4.614,4.614,0,0,0-.066-3.183,3.491,3.491,0,0,0-5.175-1.72,4.615,4.615,0,0,0-1.958,2.51,4.082,4.082,0,0,0,2.239,5.287Zm0,0" transform="translate(-268.59 -38.042)" fill="#772e8a"/>
      <path id="Caminho_600-2" data-name="Caminho 600" d="M382.838,171.679h0a4.047,4.047,0,0,0-4.777,6.454,3.228,3.228,0,0,0,1.939.626,4.175,4.175,0,0,0,3.3-1.746A3.807,3.807,0,0,0,382.838,171.679Zm0,0" transform="translate(-356.049 -161.661)" fill="#772e8a"/>
    </g>
    <g id="pawprint-3" data-name="pawprint" transform="matrix(0.5, 0.866, -0.866, 0.5, 1045.751, 1171.528)">
      <path id="Caminho_596-3" data-name="Caminho 596" d="M79.72,185.1a6.845,6.845,0,0,0-11.527,0l-3.048,4.756a4.333,4.333,0,0,0,5.392,6.3l.057-.026a8.518,8.518,0,0,1,6.782.026,4.309,4.309,0,0,0,1.739.368,4.364,4.364,0,0,0,.97-.11,4.333,4.333,0,0,0,2.684-6.563Zm0,0" transform="translate(-60.92 -171.959)" fill="#fff"/>
      <path id="Caminho_597-3" data-name="Caminho 597" d="M5.045,106.6a3.323,3.323,0,0,0,1.94-2.058,4.293,4.293,0,0,0-.076-2.961,4.3,4.3,0,0,0-1.929-2.247,3.323,3.323,0,0,0-2.818-.227A3.805,3.805,0,0,0,.3,104.127a4.014,4.014,0,0,0,3.61,2.684,3.147,3.147,0,0,0,1.135-.21Zm0,0" transform="translate(0 -93.464)" fill="#fff"/>
      <path id="Caminho_598-3" data-name="Caminho 598" d="M128.543,9.411a4.451,4.451,0,0,0,4.13-4.7,4.165,4.165,0,1,0-8.259,0A4.45,4.45,0,0,0,128.543,9.411Zm0,0" transform="translate(-117.583)" fill="#fff"/>
      <path id="Caminho_599-3" data-name="Caminho 599" d="M286.682,48.609h0a3.366,3.366,0,0,0,1.063.172,4.28,4.28,0,0,0,3.9-3.066,4.614,4.614,0,0,0-.066-3.183,3.491,3.491,0,0,0-5.175-1.72,4.615,4.615,0,0,0-1.958,2.51,4.082,4.082,0,0,0,2.239,5.287Zm0,0" transform="translate(-268.59 -38.042)" fill="#fff"/>
      <path id="Caminho_600-3" data-name="Caminho 600" d="M382.838,171.679h0a4.047,4.047,0,0,0-4.777,6.454,3.228,3.228,0,0,0,1.939.626,4.175,4.175,0,0,0,3.3-1.746A3.807,3.807,0,0,0,382.838,171.679Zm0,0" transform="translate(-356.049 -161.661)" fill="#fff"/>
    </g>
  </g>
</svg>
