<svg xmlns="http://www.w3.org/2000/svg" width="17" height="17" viewBox="0 0 17 17"><g transform="translate(-233 -282)"><g transform="translate(233 282)" fill="#00c656" stroke="#04aa4c" stroke-width="1"><circle cx="8.5" cy="8.5" r="8.5" stroke="none"/><circle cx="8.5" cy="8.5" r="8" fill="none"/></g><path d="M3.287,6.943a.438.438,0,0,1-.62,0L.193,4.468a.657.657,0,0,1,0-.93l.31-.31a.657.657,0,0,1,.93,0L2.977,4.773,7.152.6a.657.657,0,0,1,.93,0l.31.31a.657.657,0,0,1,0,.93Zm0,0" transform="translate(237 286.594)" fill="#fff"/></g></svg>