<svg xmlns="http://www.w3.org/2000/svg" width="17" height="17" viewBox="0 0 17 17"><g transform="translate(-234 -321)"><g transform="translate(1 39)"><g transform="translate(233 282)" fill="#c70000" stroke="#8e0000" stroke-width="1"><circle cx="8.5" cy="8.5" r="8.5" stroke="none"/><circle cx="8.5" cy="8.5" r="8" fill="none"/></g></g><path d="M4.324,3.79,7.17.944A.473.473,0,1,0,6.5.275L3.654,3.121.808.275a.473.473,0,0,0-.67.67L2.985,3.79.139,6.636a.473.473,0,1,0,.67.67L3.654,4.46,6.5,7.306a.473.473,0,0,0,.67-.67Zm0,0" transform="translate(239.141 325.71)" fill="#fff"/></g></svg>