<svg xmlns="http://www.w3.org/2000/svg" width="21.729" height="20.67" viewBox="0 0 21.729 20.67">
  <g id="paper-clip" transform="translate(0 -11.486)">
    <g id="Grupo_192" data-name="Grupo 192" transform="translate(0 11.486)">
      <path id="Caminho_514" data-name="Caminho 514" d="M19.887,13.233a6.126,6.126,0,0,0-8.569,0L1.332,23.22a4.678,4.678,0,0,0,6.616,6.616l9.042-9.042a3.01,3.01,0,0,0-4.257-4.257L4.084,25.185A.786.786,0,0,0,5.2,26.3l8.649-8.649a1.438,1.438,0,0,1,2.033,2.033L6.836,28.723a3.106,3.106,0,0,1-4.392-4.392l9.985-9.986a4.555,4.555,0,0,1,6.443,6.441L8.887,30.772A.786.786,0,1,0,10,31.881L19.981,21.9A6.126,6.126,0,0,0,19.887,13.233Z" transform="translate(0 -11.486)" fill="#772e8a"/>
    </g>
  </g>
</svg>
