<svg xmlns="http://www.w3.org/2000/svg" width="20.484" height="13.966" viewBox="0 0 20.484 13.966">
            <g id="visibility" transform="translate(0 -74.667)">
              <g id="Grupo_103" data-name="Grupo 103" transform="translate(0 74.667)">
                <g id="Grupo_102" data-name="Grupo 102" transform="translate(0 0)">
                  <path id="Caminho_319" data-name="Caminho 319" d="M173.46,170.667a2.793,2.793,0,1,0,2.793,2.793A2.8,2.8,0,0,0,173.46,170.667Z" transform="translate(-163.218 -166.477)" fill="#bbb" />
                  <path id="Caminho_320" data-name="Caminho 320" d="M10.242,74.667A11.012,11.012,0,0,0,0,81.65a11,11,0,0,0,20.484,0A11.007,11.007,0,0,0,10.242,74.667Zm0,11.638A4.655,4.655,0,1,1,14.9,81.65,4.657,4.657,0,0,1,10.242,86.305Z" transform="translate(0 -74.667)" fill="#bbb" />
                </g>
              </g>
            </g>
          </svg>