<svg xmlns="http://www.w3.org/2000/svg" width="46.789" height="56.224" viewBox="0 0 46.789 56.224">
  <g id="noun_Paw_Print_1143832" data-name="noun_Paw Print_1143832" transform="translate(91.95 -99.598)">
    <path id="Caminho_573" data-name="Caminho 573" d="M50.9,10.634a19.037,19.037,0,0,1,2.006,1.827,22.55,22.55,0,0,1,6.928,16.6,22.352,22.352,0,0,1-6.928,16.51,2.225,2.225,0,0,0-.223.423,1.7,1.7,0,0,0-.491.446L38.963,60.363q-2.562,2.917-5.057,0L20.2,45.881l-.223-.311a22.354,22.354,0,0,1-6.93-16.51,22.548,22.548,0,0,1,6.93-16.6,16.908,16.908,0,0,1,2.049-1.827A22.069,22.069,0,0,1,36.489,5.6,22.119,22.119,0,0,1,50.9,10.634Zm5.838,18.358a19.54,19.54,0,0,0-5.972-14.326A19.592,19.592,0,0,0,36.4,8.695a19.54,19.54,0,0,0-14.327,5.972A19.537,19.537,0,0,0,16.1,28.992a19.537,19.537,0,0,0,5.971,14.326A19.54,19.54,0,0,0,36.4,49.29a19.591,19.591,0,0,0,14.37-5.972A19.54,19.54,0,0,0,56.743,28.992ZM43.775,26.408a3.182,3.182,0,0,1,.246-2.362A3.043,3.043,0,0,1,45.869,22.6a3.008,3.008,0,0,1,2.362.312,3.135,3.135,0,0,1,1.181,4.212,3.006,3.006,0,0,1-1.872,1.448,2.857,2.857,0,0,1-2.317-.268A3.11,3.11,0,0,1,43.775,26.408Zm-5.548-9.737a3.052,3.052,0,0,1,2.629.469,3.648,3.648,0,0,1,1.627,2.272,3.815,3.815,0,0,1-.223,2.809,3.143,3.143,0,0,1-4.567,1.27,3.807,3.807,0,0,1-1.672-2.3,3.658,3.658,0,0,1,.268-2.807A3.075,3.075,0,0,1,38.227,16.671Zm4.991,22.013A5.465,5.465,0,0,0,39.3,37.436q-2.139.066-3.3,2.74-1.18,2.7-3.967-.691-2.806-3.454-1.024-6.617a8.456,8.456,0,0,1,5.28-4.144,9.5,9.5,0,0,1,7.04.8q3.5,1.783,2.584,6.15Q44.956,40.067,43.218,38.684ZM32.947,22.063a3.711,3.711,0,0,1-.267,2.829,2.944,2.944,0,0,1-1.939,1.671,3.129,3.129,0,0,1-2.584-.379,3.709,3.709,0,0,1-1.626-2.3,3.527,3.527,0,0,1,.223-2.807,2.937,2.937,0,0,1,1.984-1.739,2.84,2.84,0,0,1,2.54.446A3.72,3.72,0,0,1,32.947,22.063Zm-9.536,7.8A3.2,3.2,0,0,1,25.3,28.39a2.819,2.819,0,0,1,2.317.291,2.927,2.927,0,0,1,1.448,1.871,2.877,2.877,0,0,1-.267,2.362,2.949,2.949,0,0,1-1.872,1.448,3.012,3.012,0,0,1-2.317-.267,3.112,3.112,0,0,1-1.449-1.871A3.173,3.173,0,0,1,23.411,29.862Z" transform="translate(-105 94)" fill="#772e8a" fill-rule="evenodd"/>
  </g>
</svg>
