<svg xmlns="http://www.w3.org/2000/svg" width="190.307" height="106.468" viewBox="0 0 190.307 106.468"><g transform="translate(-770.66 -555.674)"><g transform="translate(770.66 620.26)"><path d="M791.95,1077.868q2.54,2.478,2.54,7.475v12.8h-7.847v-11.522q0-4.584-3.676-4.584a4.2,4.2,0,0,0-3.242,1.322,5.673,5.673,0,0,0-1.218,3.965v10.82H770.66V1067.5h7.847v10.325a8.578,8.578,0,0,1,3.015-1.817,10.967,10.967,0,0,1,3.717-.62A9.2,9.2,0,0,1,791.95,1077.868Z" transform="translate(-770.66 -1067.502)" fill="#0098c5"/><path d="M1014.1,1143.56H997.829a4.553,4.553,0,0,0,1.92,2.664,6.409,6.409,0,0,0,3.572.929,7.722,7.722,0,0,0,2.788-.454,8.225,8.225,0,0,0,2.375-1.487l4.13,4.3q-3.263,3.634-9.54,3.634a15.229,15.229,0,0,1-6.9-1.487,11.3,11.3,0,0,1-.248-20.154,14.093,14.093,0,0,1,12.39-.1,10.531,10.531,0,0,1,4.316,4.006,11.764,11.764,0,0,1,1.59,6.216Q1014.225,1141.7,1014.1,1143.56Zm-14.847-6.938a4.661,4.661,0,0,0-1.549,2.808h9.169a4.667,4.667,0,0,0-1.549-2.808,4.978,4.978,0,0,0-6.071,0Z" transform="translate(-962.271 -1122.126)" fill="#0098c5"/><rect width="7.847" height="22.384" transform="translate(55.589 8.26)" fill="#0098c5"/><path d="M1334.913,1132.492q2.54,2.478,2.54,7.475v12.8h-7.847v-11.522q0-4.584-3.676-4.584a4.2,4.2,0,0,0-3.242,1.322,5.673,5.673,0,0,0-1.218,3.965v10.82h-7.847v-22.384h7.475v2.437a8.889,8.889,0,0,1,3.139-2.086,10.641,10.641,0,0,1,3.965-.723A9.2,9.2,0,0,1,1334.913,1132.492Z" transform="translate(-1245.108 -1122.126)" fill="#0098c5"/><path d="M1531.72,1152.5a14.605,14.605,0,0,1-4.378-1.672l2.354-5.369a13.282,13.282,0,0,0,3.634,1.507,16.248,16.248,0,0,0,4.171.558,6.677,6.677,0,0,0,2.705-.392,1.231,1.231,0,0,0,.805-1.136q0-.743-.971-1.053a20.12,20.12,0,0,0-3.077-.6,30.337,30.337,0,0,1-4.564-.867,7.033,7.033,0,0,1-3.242-1.983,5.668,5.668,0,0,1-1.363-4.047,6.118,6.118,0,0,1,1.28-3.82,8.488,8.488,0,0,1,3.738-2.643,16.02,16.02,0,0,1,5.885-.971,23.786,23.786,0,0,1,4.832.5,13.908,13.908,0,0,1,4.006,1.4l-2.354,5.328a13.054,13.054,0,0,0-6.443-1.652,6.418,6.418,0,0,0-2.726.434,1.293,1.293,0,0,0-.867,1.136q0,.785.95,1.094a21.784,21.784,0,0,0,3.139.64,34.712,34.712,0,0,1,4.584.95,7.011,7.011,0,0,1,3.16,1.962,5.587,5.587,0,0,1,1.342,3.985,6.06,6.06,0,0,1-1.28,3.779,8.339,8.339,0,0,1-3.779,2.622,16.945,16.945,0,0,1-6.009.95A24.135,24.135,0,0,1,1531.72,1152.5Z" transform="translate(-1431.859 -1122.126)" fill="#0098c5"/><path d="M1719.584,1119.831a7.9,7.9,0,0,1-2.416.95,13.433,13.433,0,0,1-3.036.33q-4.378,0-6.732-2.148t-2.354-6.4v-7.517h-3.263v-5.865h3.263v-5.823h7.847v5.823h5.121v5.865h-5.121v7.434a2.632,2.632,0,0,0,.64,1.879,2.238,2.238,0,0,0,1.714.681,4.154,4.154,0,0,0,2.4-.7Z" transform="translate(-1584.288 -1090.095)" fill="#0098c5"/><path d="M1874.533,1143.56h-16.272a4.555,4.555,0,0,0,1.921,2.664,6.409,6.409,0,0,0,3.572.929,7.724,7.724,0,0,0,2.788-.454,8.226,8.226,0,0,0,2.375-1.487l4.13,4.3q-3.263,3.634-9.54,3.634a15.229,15.229,0,0,1-6.9-1.487,11.3,11.3,0,0,1-.248-20.154,14.092,14.092,0,0,1,12.39-.1,10.53,10.53,0,0,1,4.316,4.006,11.764,11.764,0,0,1,1.59,6.216Q1874.657,1141.7,1874.533,1143.56Zm-14.847-6.938a4.662,4.662,0,0,0-1.549,2.808h9.168a4.667,4.667,0,0,0-1.549-2.808,4.978,4.978,0,0,0-6.071,0Z" transform="translate(-1714.127 -1122.126)" fill="#0098c5"/><path d="M2092.908,1132.492q2.54,2.478,2.54,7.475v12.8H2087.6v-11.522q0-4.584-3.676-4.584a4.2,4.2,0,0,0-3.242,1.322,5.674,5.674,0,0,0-1.218,3.965v10.82h-7.847v-22.384h7.475v2.437a8.89,8.89,0,0,1,3.139-2.086,10.641,10.641,0,0,1,3.965-.723A9.2,9.2,0,0,1,2092.908,1132.492Z" transform="translate(-1907.454 -1122.126)" fill="#0098c5"/></g><g transform="translate(817.869 652.191)"><path d="M1146.061,1344.007a3.481,3.481,0,0,1-1.284-.706l.411-.867a3.409,3.409,0,0,0,1.14.65,4.19,4.19,0,0,0,1.428.25,2.573,2.573,0,0,0,1.445-.328,1.011,1.011,0,0,0,.478-.873.86.86,0,0,0-.261-.65,1.743,1.743,0,0,0-.645-.384q-.384-.133-1.084-.3a11.106,11.106,0,0,1-1.418-.422,2.343,2.343,0,0,1-.923-.65,1.737,1.737,0,0,1-.384-1.184,2,2,0,0,1,.328-1.123,2.254,2.254,0,0,1,1-.8,4.038,4.038,0,0,1,1.656-.3,5.255,5.255,0,0,1,1.356.178,3.617,3.617,0,0,1,1.145.511l-.367.889a4.034,4.034,0,0,0-1.045-.472,3.9,3.9,0,0,0-1.089-.161,2.4,2.4,0,0,0-1.417.345,1.055,1.055,0,0,0-.473.889.85.85,0,0,0,.267.651,1.849,1.849,0,0,0,.661.389,10.325,10.325,0,0,0,1.073.295,10.89,10.89,0,0,1,1.412.422,2.378,2.378,0,0,1,.917.645,1.7,1.7,0,0,1,.383,1.167,1.986,1.986,0,0,1-.333,1.117,2.232,2.232,0,0,1-1.012.8,4.182,4.182,0,0,1-1.668.295A5.323,5.323,0,0,1,1146.061,1344.007Z" transform="translate(-1144.777 -1334.329)" fill="#fff"/><path d="M1210.773,1343.838v.967h-5.648v-7.782h5.492v.967h-4.38v2.39h3.9v.945h-3.9v2.513Z" transform="translate(-1197.51 -1334.944)" fill="#fff"/><path d="M1264.493,1344a3.514,3.514,0,0,1-.867-2.557v-4.425h1.112v4.38q0,2.5,2.19,2.5a2.108,2.108,0,0,0,1.634-.617,2.709,2.709,0,0,0,.567-1.884v-4.38h1.079v4.425a3.511,3.511,0,0,1-.867,2.563,3.756,3.756,0,0,1-4.847-.005Z" transform="translate(-1248.629 -1334.944)" fill="#fff"/><path d="M1362.954,1337.746a2.717,2.717,0,0,1,0,3.98,3.6,3.6,0,0,1-2.379.723h-1.923v2.357h-1.112v-7.782h3.035A3.605,3.605,0,0,1,1362.954,1337.746Zm-.8,3.285a1.787,1.787,0,0,0,0-2.59,2.51,2.51,0,0,0-1.612-.45h-1.89v3.491h1.89A2.51,2.51,0,0,0,1362.154,1341.031Z" transform="translate(-1330.692 -1334.944)" fill="#fff"/><path d="M1425.916,1343.838v.967h-5.648v-7.782h5.492v.967h-4.38v2.39h3.9v.945h-3.9v2.513Z" transform="translate(-1385.505 -1334.944)" fill="#fff"/><path d="M1473.066,1337.99H1470.4v-.967h6.437v.967h-2.668v6.815h-1.1Z" transform="translate(-1429.309 -1334.944)" fill="#fff"/><path d="M1560.359,1343.838v.967h-5.648v-7.782h5.492v.967h-4.38v2.39h3.9v.945h-3.9v2.513Z" transform="translate(-1502.983 -1334.944)" fill="#fff"/><path d="M1620.954,1344.805l-.011-5.67-2.813,4.725h-.511l-2.813-4.692v5.637h-1.067v-7.782h.911l3.246,5.47,3.2-5.47h.912l.011,7.782Z" transform="translate(-1554.562 -1334.944)" fill="#fff"/><path d="M1727.878,1341.453a1.962,1.962,0,0,1,.389,1.251,1.8,1.8,0,0,1-.762,1.557,3.79,3.79,0,0,1-2.218.545h-3.713v-7.782h3.491a3.442,3.442,0,0,1,2.062.534,1.731,1.731,0,0,1,.728,1.479,1.92,1.92,0,0,1-.284,1.056,1.843,1.843,0,0,1-.761.678A2,2,0,0,1,1727.878,1341.453Zm-5.192-3.53v2.49h2.279a2.314,2.314,0,0,0,1.318-.317,1.165,1.165,0,0,0,0-1.857,2.314,2.314,0,0,0-1.318-.317Zm3.98,5.67a1.083,1.083,0,0,0,.478-.978q0-1.3-1.9-1.3h-2.557v2.59h2.557A2.632,2.632,0,0,0,1726.666,1343.594Z" transform="translate(-1648.79 -1334.944)" fill="#fff"/><path d="M1785.268,1343.762a3.821,3.821,0,0,1-1.484-1.429,4.108,4.108,0,0,1,0-4.069,3.82,3.82,0,0,1,1.484-1.429,4.6,4.6,0,0,1,4.236,0,3.8,3.8,0,0,1,1.479,1.423,4.166,4.166,0,0,1,0,4.08,3.8,3.8,0,0,1-1.479,1.423,4.6,4.6,0,0,1-4.236,0Zm3.663-.862a2.856,2.856,0,0,0,1.078-1.073,3.158,3.158,0,0,0,0-3.057,2.858,2.858,0,0,0-1.078-1.073,3.058,3.058,0,0,0-1.54-.389,3.12,3.12,0,0,0-1.551.389,2.832,2.832,0,0,0-1.089,1.073,3.158,3.158,0,0,0,0,3.057,2.83,2.83,0,0,0,1.089,1.073,3.119,3.119,0,0,0,1.551.389A3.057,3.057,0,0,0,1788.932,1342.9Z" transform="translate(-1702.678 -1334.329)" fill="#fff"/><path d="M1858.19,1342.86h-4.136l-.856,1.945h-1.145l3.524-7.782h1.1l3.535,7.782h-1.167Zm-.389-.889-1.679-3.813-1.679,3.813Z" transform="translate(-1762.804 -1334.944)" fill="#fff"/><path d="M1921.528,1344.007a3.479,3.479,0,0,1-1.284-.706l.411-.867a3.408,3.408,0,0,0,1.139.65,4.19,4.19,0,0,0,1.429.25,2.572,2.572,0,0,0,1.445-.328,1.011,1.011,0,0,0,.478-.873.86.86,0,0,0-.261-.65,1.746,1.746,0,0,0-.645-.384q-.383-.133-1.084-.3a11.106,11.106,0,0,1-1.418-.422,2.343,2.343,0,0,1-.923-.65,1.737,1.737,0,0,1-.384-1.184,2,2,0,0,1,.328-1.123,2.253,2.253,0,0,1,1-.8,4.037,4.037,0,0,1,1.656-.3,5.255,5.255,0,0,1,1.356.178,3.615,3.615,0,0,1,1.145.511l-.367.889a4.031,4.031,0,0,0-1.045-.472,3.9,3.9,0,0,0-1.09-.161,2.4,2.4,0,0,0-1.417.345,1.055,1.055,0,0,0-.472.889.85.85,0,0,0,.267.651,1.85,1.85,0,0,0,.661.389,10.326,10.326,0,0,0,1.073.295,10.889,10.889,0,0,1,1.412.422,2.379,2.379,0,0,1,.917.645,1.7,1.7,0,0,1,.383,1.167,1.986,1.986,0,0,1-.333,1.117,2.232,2.232,0,0,1-1.012.8,4.183,4.183,0,0,1-1.668.295A5.321,5.321,0,0,1,1921.528,1344.007Z" transform="translate(-1822.39 -1334.329)" fill="#fff"/><path d="M2011.507,1344.805l-.011-5.67-2.813,4.725h-.511l-2.813-4.692v5.637h-1.067v-7.782h.912l3.246,5.47,3.2-5.47h.912l.011,7.782Z" transform="translate(-1895.832 -1334.944)" fill="#fff"/><path d="M2085.226,1328.464h-4.135l-.856,1.945h-1.145l3.524-7.782h1.1l3.535,7.782h-1.167Zm-1.74-6.615a4.48,4.48,0,0,1-.483-.333,1.793,1.793,0,0,0-.289-.228.48.48,0,0,0-.245-.072.5.5,0,0,0-.4.183.8.8,0,0,0-.167.506h-.6a1.633,1.633,0,0,1,.317-.989,1,1,0,0,1,1.245-.25,3.359,3.359,0,0,1,.473.339,3.583,3.583,0,0,0,.3.228.421.421,0,0,0,.234.072.508.508,0,0,0,.4-.178.762.762,0,0,0,.167-.489h.6a1.575,1.575,0,0,1-.317.962.95.95,0,0,1-.773.361A.915.915,0,0,1,2083.486,1321.849Zm1.351,5.725-1.679-3.813-1.679,3.813Z" transform="translate(-1961.191 -1320.548)" fill="#fff"/><path d="M2149.04,1343.762a3.822,3.822,0,0,1-1.484-1.429,4.109,4.109,0,0,1,0-4.069,3.821,3.821,0,0,1,1.484-1.429,4.6,4.6,0,0,1,4.236,0,3.794,3.794,0,0,1,1.479,1.423,4.166,4.166,0,0,1,0,4.08,3.794,3.794,0,0,1-1.479,1.423,4.6,4.6,0,0,1-4.236,0Zm3.663-.862a2.856,2.856,0,0,0,1.078-1.073,3.157,3.157,0,0,0,0-3.057,2.858,2.858,0,0,0-1.078-1.073,3.058,3.058,0,0,0-1.54-.389,3.117,3.117,0,0,0-1.551.389,2.831,2.831,0,0,0-1.09,1.073,3.159,3.159,0,0,0,0,3.057,2.829,2.829,0,0,0,1.09,1.073,3.116,3.116,0,0,0,1.551.389A3.056,3.056,0,0,0,2152.7,1342.9Z" transform="translate(-2020.547 -1334.329)" fill="#fff"/><path d="M2221.689,1344.007a3.48,3.48,0,0,1-1.284-.706l.411-.867a3.406,3.406,0,0,0,1.14.65,4.188,4.188,0,0,0,1.428.25,2.571,2.571,0,0,0,1.445-.328,1.011,1.011,0,0,0,.478-.873.86.86,0,0,0-.261-.65,1.744,1.744,0,0,0-.645-.384q-.383-.133-1.084-.3a11.114,11.114,0,0,1-1.418-.422,2.344,2.344,0,0,1-.923-.65,1.736,1.736,0,0,1-.384-1.184,2,2,0,0,1,.328-1.123,2.254,2.254,0,0,1,1-.8,4.038,4.038,0,0,1,1.656-.3,5.257,5.257,0,0,1,1.356.178,3.614,3.614,0,0,1,1.145.511l-.367.889a4.035,4.035,0,0,0-1.045-.472,3.907,3.907,0,0,0-1.09-.161,2.4,2.4,0,0,0-1.417.345,1.056,1.056,0,0,0-.472.889.85.85,0,0,0,.267.651,1.853,1.853,0,0,0,.662.389,10.308,10.308,0,0,0,1.073.295,10.893,10.893,0,0,1,1.412.422,2.378,2.378,0,0,1,.917.645,1.7,1.7,0,0,1,.384,1.167,1.986,1.986,0,0,1-.334,1.117,2.229,2.229,0,0,1-1.011.8,4.183,4.183,0,0,1-1.667.295A5.322,5.322,0,0,1,2221.689,1344.007Z" transform="translate(-2084.675 -1334.329)" fill="#fff"/></g><g transform="translate(855.993 591.697)"><g transform="translate(0 0)"><path d="M1462.728,866.586q0,.24-.09.959t-.23,1.578q-.14.859-.279,1.518v.24a2.735,2.735,0,0,1-.439,1.478,3.935,3.935,0,0,1-1.348,1.278,3.3,3.3,0,0,1-1.667.479,1.862,1.862,0,0,1-1.438-.639,3.255,3.255,0,0,1-.619-2.117,22.354,22.354,0,0,1,.18-2.336q.1-.859.18-1.7a4.605,4.605,0,0,1-2.4.339q-1.318-.14-1.618-.979a2.048,2.048,0,0,1-.03-1.5,1.985,1.985,0,0,1,.949-1.018,24.923,24.923,0,0,1,3.994-1.158q.1-.759.4-3.355t.629-5.751q.329-3.155.5-5.192t.17-3.335a9.354,9.354,0,0,0-1.977.17,8.366,8.366,0,0,0-3.016,1.1,9.719,9.719,0,0,0-2.566,2.177,5.064,5.064,0,0,0-1.248,2.456,5.392,5.392,0,0,0,.08,2.087,3.035,3.035,0,0,0,.719,1.358,2.022,2.022,0,0,0,1.438.609,1.86,1.86,0,0,0,1.418-.409,1.51,1.51,0,0,0,.579-.9q.02-.379.02-.419a1.631,1.631,0,0,0-.639-1.238,2.086,2.086,0,0,0-1.148-.28q-.789-.02-.949-.579a1.24,1.24,0,0,1,.04-.939,2.528,2.528,0,0,1,.969-.959,2.8,2.8,0,0,1,1.538-.319,3.02,3.02,0,0,1,1.827.839,4.369,4.369,0,0,1,1.388,2.267,10.315,10.315,0,0,1,.21,1.767,7.121,7.121,0,0,1-.3,2.017,6.789,6.789,0,0,1-1.628,2.836,4.514,4.514,0,0,1-3.016,1.348,5.33,5.33,0,0,1-5.621-3.165,9.5,9.5,0,0,1-.789-4.014,10.328,10.328,0,0,1,.919-4.134,11.8,11.8,0,0,1,2.506-3.575,14.9,14.9,0,0,1,5.012-3.085,18.8,18.8,0,0,1,6.46-1.238,14.5,14.5,0,0,1,6.021,1.028,8.43,8.43,0,0,1,3.3,2.7,15.792,15.792,0,0,1,2.217,4.274,32.034,32.034,0,0,1,1.328,5.232,56.567,56.567,0,0,1,.539,8.078,68.606,68.606,0,0,1-.15,7.219,5.862,5.862,0,0,1-.8,2.336,4.3,4.3,0,0,1-1.378,1.458,2.825,2.825,0,0,1-1.458.459,2.608,2.608,0,0,1-.319-.02,2.294,2.294,0,0,1-1.5-1.049,6.122,6.122,0,0,1-.859-2.766q-.08-.8-.15-1.957t-.11-2.077q-.04-.918-.06-1.038Zm.879-4.653a29.194,29.194,0,0,0,3.475-1.058q.719-.259,1.178-.379a42.422,42.422,0,0,0-.329-4.583,37.674,37.674,0,0,0-.759-4.2,17.792,17.792,0,0,0-1-3.075q-.529-1.158-1.028-1.178l-.2,2.057q-.2,1.937-.469,4.583t-.509,4.893Q1463.726,861.234,1463.607,861.933Z" transform="translate(-1446.901 -841.15)" fill="#f59e00"/><path d="M1697.1,911.656a3.361,3.361,0,0,1,.739-2.317,2.55,2.55,0,0,1,1.917-.719q.359,0,.759.04.878.14,1.568,1.468a14.325,14.325,0,0,1,1.158,3.435,30.976,30.976,0,0,1,.639,4.1q.17,2,.11,5.292a22.673,22.673,0,0,1-.6,4.323,7.165,7.165,0,0,1-1.268,2.866,2.215,2.215,0,0,1-1.957.849,2,2,0,0,1-1.5-.549,2.322,2.322,0,0,1-.33-1.358v-1a11.479,11.479,0,0,1-2.526,2.716,7.774,7.774,0,0,1-2.706,1.488,8.457,8.457,0,0,1-2.067.31,5.107,5.107,0,0,1-2.157-.639,5.369,5.369,0,0,1-2.227-2.367,14.689,14.689,0,0,1-1.418-4,27.02,27.02,0,0,1-.529-5.072,42.008,42.008,0,0,1,.16-4.883,27.45,27.45,0,0,1,.709-4.044,10.277,10.277,0,0,1,.979-2.646,5.44,5.44,0,0,1,1.4-1.747,2.452,2.452,0,0,1,1.478-.579h.26a2.384,2.384,0,0,1,1.837,1.038,3.34,3.34,0,0,1,.419,1.368q.02.589.02.669a31.012,31.012,0,0,1-.349,3.595,47.951,47.951,0,0,0-.309,6.69,28.277,28.277,0,0,0,.4,5.542,2.152,2.152,0,0,0,1.368,1.718,1.568,1.568,0,0,0,1.767-.589,6.935,6.935,0,0,0,1.118-2.436,33.793,33.793,0,0,0,.779-5.322Q1697.075,915.15,1697.1,911.656Z" transform="translate(-1654.688 -898.361)" fill="#f59e00"/><path d="M1851.943,916.126a3.807,3.807,0,0,1,1.088-1.258,3.151,3.151,0,0,1,1.727-.379h.22a3.676,3.676,0,0,1,1.548.4,2.476,2.476,0,0,1,.989.839,7.46,7.46,0,0,1,2.806-2.067,7.015,7.015,0,0,1,2.107-.389,9.233,9.233,0,0,1,2.356.339,5.469,5.469,0,0,1,2.656,1.7,9.634,9.634,0,0,1,1.807,3.065,12.82,12.82,0,0,1,.739,4.114,22.071,22.071,0,0,1-.21,4.084,19.1,19.1,0,0,1-1.288,4.483,11.164,11.164,0,0,1-2.376,3.585,6.007,6.007,0,0,1-3.844,1.668,9.032,9.032,0,0,1-4.533-.749q-.02.16.06,2.107t.1,4.793a26.242,26.242,0,0,1-.28,4.543,4.655,4.655,0,0,1-1.148,2.546,3.092,3.092,0,0,1-2.416.789,2.577,2.577,0,0,1-2.137-.869,3.916,3.916,0,0,1-.689-1.827q-.4-3.435-.539-6.53t-.14-4.374q0-5.551.22-10.964.18-4.992.539-7.808A4.737,4.737,0,0,1,1851.943,916.126Zm6.87,14.678q1,.839,2.346-.8a8.388,8.388,0,0,0,1.767-3.455,22.735,22.735,0,0,0,.5-4.334,8.061,8.061,0,0,0-.349-2.336,1.778,1.778,0,0,0-1.118-1.368,1.928,1.928,0,0,0-1.628.379,5.5,5.5,0,0,0-1.627,2.177,10.274,10.274,0,0,0-.909,3.864,2.1,2.1,0,0,1,.779.27,1.709,1.709,0,0,1,.479.439,1.986,1.986,0,0,1,.26.469,1.816,1.816,0,0,1,.1.379l.02.16a2.526,2.526,0,0,0-1.038.649,2.293,2.293,0,0,0-.579,1.508v.16A2.4,2.4,0,0,0,1858.813,930.8Z" transform="translate(-1799.61 -904.169)" fill="#f59e00"/><path d="M2016.195,904.632a13.2,13.2,0,0,1,2.536-3.635,12.177,12.177,0,0,1,3.385-2.456,7.789,7.789,0,0,1,2.776-.909l.989-.03a6.049,6.049,0,0,1,3.375,1.018,6.548,6.548,0,0,1,2.416,2.716,7.874,7.874,0,0,1,.509,4.423,5.952,5.952,0,0,1-2.077,4.114,8.133,8.133,0,0,1-3.874,1.747,28.624,28.624,0,0,1-3.285.379,7.575,7.575,0,0,1-2.057-.18,11.661,11.661,0,0,0,.459,2.337,6.331,6.331,0,0,0,1.208,2.446,2.468,2.468,0,0,0,1.927.939,1.714,1.714,0,0,0,1.578-.669,2.914,2.914,0,0,0,.429-1.648,8.645,8.645,0,0,0-.12-1.518.984.984,0,0,1,.429-.989,2.44,2.44,0,0,1,1.668-.389,3.3,3.3,0,0,1,2.926,2.646q.079.859.08,1.1a6.067,6.067,0,0,1-.6,2.556,7.263,7.263,0,0,1-2.936,2.866,8.135,8.135,0,0,1-3.874,1.368,8.761,8.761,0,0,1-4.823-1.308,8.5,8.5,0,0,1-2.946-3.355,12.112,12.112,0,0,1-1.258-3.884,25.039,25.039,0,0,1-.22-2.916,18.348,18.348,0,0,1,.18-2.556A15.141,15.141,0,0,1,2016.195,904.632Zm5.212,3.155a8.884,8.884,0,0,0,2.446.3,3.035,3.035,0,0,0,3.185-2.866,2.3,2.3,0,0,0-.559-2.207,1.638,1.638,0,0,0-1.8-.339,4.406,4.406,0,0,0-1.937,1.777A9.276,9.276,0,0,0,2021.407,907.787Z" transform="translate(-1943.153 -890.479)" fill="#f59e00"/><path d="M2165.316,896.1q-3.225-1-4.124-2.856a13.122,13.122,0,0,1-1.048-5.023,39.627,39.627,0,0,1,.988-8.917,60.389,60.389,0,0,0,.779-6.171l-1.038-.08a1.57,1.57,0,0,1-1.248-.609,1.85,1.85,0,0,1-.37-1.308,2.017,2.017,0,0,1,.4-1.148,1.4,1.4,0,0,1,1-.469q.918-.06,1.4-.08a13.113,13.113,0,0,0-.26-1.957,7.576,7.576,0,0,1-.19-1.668,1.793,1.793,0,0,1,.419-1.2,2.624,2.624,0,0,1,1.7-.6q1.288-.13,1.568-.13a2.331,2.331,0,0,1,2.257,1.677,9.52,9.52,0,0,1,.539,3.415v.719l.839.16a9.448,9.448,0,0,1,2.476.579,1.49,1.49,0,0,1,1.1,1.378,2.41,2.41,0,0,1-.619,1.548q-.62.749-3.954.33-.08,1.618-.4,3.954a91.478,91.478,0,0,0-.839,10.1,9.58,9.58,0,0,0,.2,2.217,1.416,1.416,0,0,0,1.378,1.158,2.37,2.37,0,0,0,1.757-.859,2.054,2.054,0,0,0,.6-1.4,1.946,1.946,0,0,0-.938-1.458,7.86,7.86,0,0,1-.689-.649.956.956,0,0,1,.11-1.528,2.131,2.131,0,0,1,1.4-.559q.06,0,.519.03a2.641,2.641,0,0,1,1.2.539,4.2,4.2,0,0,1,1.2,1.248,6.3,6.3,0,0,1,.918,3.395,6.517,6.517,0,0,1-.559,2.676,8.2,8.2,0,0,1-2.237,3A7.974,7.974,0,0,1,2165.316,896.1Z" transform="translate(-2069.359 -861.023)" fill="#f59e00"/></g></g><g transform="translate(773.002 555.674)"><path d="M880.084,581.063s-1.076-10.2-13.48-10.063-16.522,11.093-17.318,12.626-1.779.526-1.779.526A26.162,26.162,0,0,0,841.844,579c-6.646-4.54-15.149-2.559-17.661-1.763a1.828,1.828,0,0,1-2.637-1.654c-1.248-18.847-15.04-19.783-15.04-19.783-10.016-1.108-13.2,5.133-12.825,9.439a10.068,10.068,0,0,0,4.61,7.863c1.919,1.311,7.325,2.118,9.607,1.065s3.6.043,3.6.043c3.276,2.808,1.935,7.271,1.935,7.271s-3.339,8.363-6.428,11.545a7.243,7.243,0,0,1-6.459,2.4,36.7,36.7,0,0,0-7.083-.843c-3.589.531-3.042,4.649-3.042,4.649-1.233,2.013-1.2,8.425-1.2,8.425.874,10.422,6.99,12.544,6.99,12.544a5.682,5.682,0,0,0,4.431,5.18,58.113,58.113,0,0,0,14.385.156,53.734,53.734,0,0,1,16.054.64c1.014.3.842,0,.842,0-7.068-7.863-6.342-22.233-6.342-22.233l-2.6-8.753a1.2,1.2,0,0,1,.211-1.334,1.142,1.142,0,0,1,1.194-.234s8.238,4.236,10.11,5.125,2.5-.234,2.5-.234c5.055-4.712,16.238-4.177,16.238-4.177l6.6-7.126s4.224-5.453,4.341-1.9a11.109,11.109,0,0,0,1.217,5.274s2.777,3.869,7.271,3.432C882.456,592.655,880.084,581.063,880.084,581.063Zm-84.065,21.846c-1.924-.4-3.224-1.973-2.9-3.517s2.139-2.473,4.062-2.074,3.224,1.973,2.9,3.517S797.943,603.307,796.019,602.908Zm3.684,18.516V619.4s10.734,1.716,13.823-4.712l1.841.78S812.808,623.11,799.7,621.425Z" transform="translate(-789.218 -555.674)" fill="#fff"/><path d="M1144.419,1016.821s3.183-.117,4.33,0,1.193-1.194,1.193-1.194-.819-2.27-5.031-2.528a4.329,4.329,0,0,0-4.727,3.728s-.185,1.561,1.265,1.233S1142.5,1016.657,1144.419,1016.821Z" transform="translate(-1095.889 -955.368)" fill="#fff"/><path d="M1289.788,983.132a9.274,9.274,0,0,1,6.4-2.122c2.309.218,1.517-1.443,1.517-1.443a5.1,5.1,0,0,0-4.294-1.872c-2.832.164-4.973,3.873-4.973,3.873s-.468.819.141,1.322A1.218,1.218,0,0,0,1289.788,983.132Z" transform="translate(-1225.29 -924.433)" fill="#fff"/><ellipse cx="3.9" cy="2.804" rx="3.9" ry="2.804" transform="translate(55.476 66.328) rotate(-17.394)" fill="#fff"/><path d="M1382.112,1053.344s6.518-.7,10.4.516,4.809,2.734,4.809,2.734.09.52-.259.66-.911-.323-.911-.323a10.874,10.874,0,0,0-4.6-1.691c-3.186-.566-9.109-1.211-9.109-1.211a.715.715,0,0,1-.615-.241C1381.635,1053.5,1382.112,1053.344,1382.112,1053.344Z" transform="translate(-1307.011 -990.371)" fill="#fffffe"/><path d="M1377.117,1073.675c.045.018,6.734.825,10.5,2.995,1.86,1.3,1.76,2.04,1.364,2.3s-.944-.37-.944-.37-.792-1.245-6.537-3.135c-4.531-1.414-4.606-1.443-4.606-1.443s-.506-.121-.429-.272S1377.117,1073.675,1377.117,1073.675Z" transform="translate(-1302.355 -1008.292)" fill="#fffffe"/></g></g></svg>